<svg width="523" height="150" viewBox="0 0 523 150" fill="none" xmlns="http://www.w3.org/2000/svg">
<path d="M16.3865 82.2792L0 59.1862L14.7016 0H35.3664L49.1759 25.1083L36.82 82.2792H16.3865Z" fill="#040000"/>
<path d="M33.1528 3.74969H17.6418L4.047 58.4263L18.3191 78.5295H33.797L45.2114 25.6864L33.1528 3.74969Z" fill="#040000"/>
<path d="M67.363 82.2792L59.814 68.8826L57.1875 82.2792H36.6053L21.5238 59.1366L35.0195 0H55.8165L63.0846 14.4538L65.9258 0H86.9871L97.8068 25.2239L88.1764 82.2792H67.363Z" fill="#040000"/>
<path d="M84.5091 3.74969H68.9981L64.5216 26.4628H64.3729L64.5216 25.6864L53.5202 3.74969H38.0092L25.5211 58.4263L38.6369 78.5295H54.0983L58.707 55.2217H58.8557L58.228 58.4263L69.5432 78.5295H85.0212L93.9247 25.6864L84.5091 3.74969Z" fill="#040000"/>
<path d="M102.927 82.2792L92.1738 58.9549L95.4115 38.9344H94.536L83.7659 14.0078L86.2437 0H138.657L146.454 25.3396L144.819 38.9344H129.935L124.071 82.2792H102.927Z" fill="#040000"/>
<path d="M135.882 3.74969H89.3823L87.6478 13.5452L96.9974 35.1846H99.8055L96.0558 58.4263L105.323 78.5295H120.801L126.665 35.1846H141.499L142.638 25.6864L135.882 3.74969Z" fill="#040000"/>
<path d="M138.476 82.2792L130.051 58.8558L137.451 0H190.377L195.151 25.4717L194.16 38.9344H192.128L193.615 46.2686L192.59 60.1608H190.327L192.029 67.9411L190.972 82.2792H138.476Z" fill="#040000"/>
<path d="M191.368 25.6864L187.272 3.74969H140.755L133.883 58.4263L141.102 78.5295H187.486L188.246 68.2053L185.669 56.411H189.105L189.848 46.5164L187.552 35.1846H190.674L191.368 25.6864Z" fill="#040000"/>
<path d="M189.303 82.2792L184.282 58.6741L188.643 0H210.893L214.445 25.5213L213.437 43.9891H240.875L242.725 68.1228L242.361 82.2792H189.303Z" fill="#040000"/>
<path d="M237.405 47.7223H209.472L210.695 25.6864L207.639 3.74969H192.128L188.048 58.4263L192.326 78.5295H238.71L238.975 68.2053L237.405 47.7223Z" fill="#040000"/>
<path d="M240.065 82.2792L238.496 58.5089L239.85 0H262.679L263.142 25.6204L263.009 43.9891H294.692L295.023 58.5089L293.453 82.2792H240.065Z" fill="#040000"/>
<path d="M291.025 47.7223H259.243L259.408 25.6864L258.995 3.74969H243.501L242.246 58.4263L243.567 78.5295H289.935L291.273 58.4263L291.025 47.7223Z" fill="#040000"/>
<path d="M291.141 82.2792L289.67 25.6039L291.372 0H313.969L316.513 58.575L313.573 82.2792H291.141Z" fill="#040000"/>
<path d="M310.385 3.74969H294.874L293.42 25.6864L294.791 78.5295H310.269L312.763 58.4263L310.385 3.74969Z" fill="#040000"/>
<path d="M319.288 82.2792L318.875 74.3833H311.178L309.311 32.7729L312.268 7.4499H318.727L319.718 0H357.43L358.074 7.4499H365.871L366.961 19.046L366.102 22.7296H367.308L370.727 58.7402L364.351 82.2792H319.288Z" fill="#040000"/>
<path d="M363.905 26.4794H361.378L363.178 18.7817L362.468 11.2161H354.655L354.011 3.74966H322.939L321.948 11.2161H315.539L313.028 32.9215L314.68 70.6502H322.361L322.757 78.5296H361.411L366.862 58.4263L363.905 26.4794ZM336.27 47.6892L336.435 50.2497H333.726L332.619 32.9215H338.962L336.27 47.6892Z" fill="#040000"/>
<path d="M362.931 82.2792L357.678 25.4221L363.657 0H416.368L418.4 13.9252L415.691 21.5072H419.507L421.605 35.928L418.516 43.9891H422.777L424.958 58.9054L415.212 82.2792H362.931Z" fill="#040000"/>
<path d="M419.54 47.7223H413.065L417.756 35.4985L416.269 25.2569H410.389L414.551 13.5452L413.114 3.74969H366.631L361.46 25.6864L366.35 78.5295H412.718L421.109 58.4263L419.54 47.7223Z" fill="#040000"/>
<path d="M445.325 82.2792L442.732 66.8508L435.398 82.2792H414.32L406.341 25.29L415.344 0H436.67L439.164 15.0319H440.072L446.531 0H467.576L479.222 59.0541L466.139 82.2792H445.325Z" fill="#040000"/>
<path d="M464.487 3.74969H448.993L442.534 18.7816H435.992L433.482 3.74969H417.987L410.174 25.6864L417.574 78.5295H433.019L440.469 62.8863H445.854L448.497 78.5295H463.942L475.274 58.4263L464.487 3.74969Z" fill="#040000"/>
<path d="M481.204 82.2792L472.449 38.9344H457.566L454.989 25.1744L466.998 0H518.8L522.319 14.1565L510.987 32.839L517.115 59.1532L501.72 82.2792H481.204Z" fill="#040000"/>
<path d="M518.305 13.5452L515.876 3.74969H469.36L458.887 25.6864L460.671 35.1846H475.521L484.276 78.5295H499.721L513.101 58.4263L506.989 32.2113L518.305 13.5452Z" fill="#040000"/>
<path d="M135.882 3.74969L142.638 25.6864L141.499 35.1846L134.61 13.5452L135.882 3.74969Z" stroke="black" stroke-width="0.412965" stroke-miterlimit="10"/>
<path d="M187.272 3.74969L191.368 25.6864L190.674 35.1846L186.495 13.5452L187.272 3.74969Z" stroke="black" stroke-width="0.412965" stroke-miterlimit="10"/>
<path d="M185.554 25.257L189.848 46.5164L189.105 56.4111L184.744 35.4985L185.554 25.257Z" stroke="black" stroke-width="0.412965" stroke-miterlimit="10"/>
<path d="M362.468 11.1996L363.178 18.7817L358.124 40.2559L357.479 32.9051L362.468 11.1996Z" stroke="black" stroke-width="0.412965" stroke-miterlimit="10"/>
<path d="M363.905 26.4628L366.928 58.4263L361.493 78.5295L358.784 47.6727L363.905 26.4628Z" stroke="black" stroke-width="0.412965" stroke-miterlimit="10"/>
<path d="M413.114 3.74969L414.551 13.5452L406.837 35.1846L405.565 25.6864L413.114 3.74969Z" stroke="black" stroke-width="0.412965" stroke-miterlimit="10"/>
<path d="M416.269 25.257L417.756 35.4985L409.728 56.4111L408.373 46.5164L416.269 25.257Z" stroke="black" stroke-width="0.412965" stroke-miterlimit="10"/>
<path d="M20.4003 58.4263L33.1527 3.74969H17.6417L4.04688 58.4263H20.4003Z" fill="url(#paint0_linear_17_14)"/>
<path d="M33.7969 78.5295L20.4003 58.4263H4.04688L18.319 78.5295H33.7969Z" fill="url(#paint1_linear_17_14)"/>
<path d="M84.5092 3.74969L74.5815 58.4263H58.2281L61.4162 42.205H53.3881L55.007 34.2761H47.012L41.8747 58.4263H25.5212L38.0093 3.74969H53.5203L50.3157 18.7816H58.1785L56.6093 26.4628H64.5217L68.9982 3.74969H84.5092Z" fill="url(#paint2_linear_17_14)"/>
<path d="M85.0212 78.5295L74.5815 58.4263H58.2281L69.5433 78.5295H85.0212Z" fill="url(#paint3_linear_17_14)"/>
<path d="M41.8747 58.4263L54.0984 78.5295H38.637L25.5212 58.4263H41.8747Z" fill="url(#paint4_linear_17_14)"/>
<path d="M134.61 13.5452L135.882 3.74969H89.3824L87.6479 13.5452H103.291L96.0559 58.4263H112.409L118.951 13.5452H134.61Z" fill="url(#paint5_linear_17_14)"/>
<path d="M112.409 58.4263L120.801 78.5295H105.323L96.0559 58.4263H112.409Z" fill="url(#paint6_linear_17_14)"/>
<path d="M186.495 13.5452L187.272 3.74969H140.755L133.884 58.4263H182.927L183.786 47.7222H151.41L152.764 35.4985H184.744L185.554 25.2569H153.888L155.176 13.5452H186.495Z" fill="url(#paint7_linear_17_14)"/>
<path d="M182.927 58.4263L187.486 78.5295H141.102L133.884 58.4263H182.927Z" fill="url(#paint8_linear_17_14)"/>
<path d="M205.046 47.7222L207.639 3.74969H192.128L188.048 58.4263H237.108L237.405 47.7222H205.046Z" fill="url(#paint9_linear_17_14)"/>
<path d="M237.108 58.4263L238.71 78.5295H192.326L188.048 58.4263H237.108Z" fill="url(#paint10_linear_17_14)"/>
<path d="M258.665 47.7222L258.995 3.74969H243.501L242.246 58.4263H291.273L291.025 47.7222H258.665Z" fill="url(#paint11_linear_17_14)"/>
<path d="M291.273 58.4263L289.935 78.5295H243.567L242.246 58.4263H291.273Z" fill="url(#paint12_linear_17_14)"/>
<path d="M312.763 58.4263L310.385 3.74969H294.874L296.41 58.4263H312.763Z" fill="url(#paint13_linear_17_14)"/>
<path d="M312.763 58.4263L310.269 78.5295H294.791L296.41 58.4263H312.763Z" fill="url(#paint14_linear_17_14)"/>
<path d="M354.655 11.1996L353.994 3.74969H322.989L323.418 11.1996H315.605L317.488 50.2496H325.599L326.061 58.4263H366.928L363.905 26.4628H340.135L340.697 34.2761H348.659L349.93 50.2496H333.726L331.231 11.1996H346.841L347.436 18.7816H363.178L362.468 11.1996H354.655Z" fill="url(#paint15_linear_17_14)"/>
<path d="M366.928 58.4263L361.493 78.5295H322.84L326.061 58.4263H366.928Z" fill="url(#paint16_linear_17_14)"/>
<path d="M414.551 13.5452L413.114 3.74969H366.631L372.065 58.4263H396.587H421.109L419.54 47.7222H387.18L385.776 35.4985H417.756L416.269 25.2569H384.586L383.248 13.5452H414.551Z" fill="url(#paint17_linear_17_14)"/>
<path d="M421.109 58.4263L412.718 78.5295H366.35L372.065 58.4263H396.587H421.109Z" fill="url(#paint18_linear_17_14)"/>
<path d="M475.274 58.4263L464.487 3.74969H448.993L453.122 26.4628H445.193L443.855 18.7816H435.992L433.482 3.74969H417.987L426.246 58.4263H442.583L438.569 34.2761H446.548L447.935 42.205H455.98L458.937 58.4263H475.274Z" fill="url(#paint19_linear_17_14)"/>
<path d="M475.274 58.4263L463.942 78.5295H448.497L458.937 58.4263H475.274Z" fill="url(#paint20_linear_17_14)"/>
<path d="M433.019 78.5295L442.583 58.4263H426.246L417.574 78.5295H433.019Z" fill="url(#paint21_linear_17_14)"/>
<path d="M515.876 3.74969L518.305 13.5452H502.645L513.101 58.4263H496.764L487.002 13.5452H471.342L469.36 3.74969H515.876Z" fill="url(#paint22_linear_17_14)"/>
<path d="M499.721 78.5295L513.101 58.4263H496.764L484.276 78.5295H499.721Z" fill="url(#paint23_linear_17_14)"/>
<path d="M445.045 149.51L443.64 140.656H439.147L434.01 149.51H412.173L403.913 86.062L413.395 62.9194H460.143L461.629 71.3109H469.889L475.571 101.804L468.997 112.409L469.525 115.349H478.115L480.692 129.192L466.585 149.51H445.045Z" fill="#040000"/>
<path d="M474.993 119.116H466.387L465.049 111.666L471.656 101.077L469.228 88.0772L466.8 75.077H458.54L457.037 66.6856H415.906L407.762 86.508L415.476 145.727H431.863L438.354 134.511L438.718 136.857H446.829L448.233 145.727H464.619L476.711 128.3L474.993 119.116ZM437.694 101.077L436.703 94.6515H440.122L441.146 101.077H437.694Z" fill="#040000"/>
<path d="M83.2043 149.51L77.5715 140.656H76.4978L70.931 131.951H69.8903L56.2625 110.774L65.199 62.9194H87.0532L95.3785 79.5867L97.972 62.9194H120.123L129.589 86.062L123.625 131.951H115.531L114.342 140.656H106.182L104.91 149.51H83.2043Z" fill="#040000"/>
<path d="M117.596 66.6691H101.176L94.4204 109.997H90.9515L94.6682 86.5575L84.7405 66.6691H68.3044L60.2103 109.997L71.922 128.201H72.9792L78.546 136.906H79.6197L85.2691 145.76H101.656L102.944 136.906H111.071L112.277 128.201H120.322L125.756 86.5575L117.596 66.6691Z" fill="#040000"/>
<path d="M120.768 149.51L110.427 128.994L119.38 62.9194H141.746L149.89 86.1281L142.82 149.51H120.768Z" fill="#040000"/>
<path d="M139.087 66.6691H122.651L114.292 128.333L123.064 145.76H139.467L146.058 86.5575L139.087 66.6691Z" fill="#040000"/>
<path d="M142.027 149.51L133.19 128.895L140.805 62.9194H163.386L170.158 86.1941L167.73 112.492H192.97L198.174 133.85L197.166 149.51H142.027Z" fill="#040000"/>
<path d="M190.014 116.242H163.617L166.375 86.5575L160.561 66.6691H144.141L137.022 128.333L144.505 145.76H193.648L194.391 134.181L190.014 116.242Z" fill="#040000"/>
<path d="M195.729 149.51L190.757 128.663L194.969 62.9194H218.178L221.515 86.3758L220.342 112.492H250.422L251.777 134.098L251.529 149.51H195.729Z" fill="#040000"/>
<path d="M246.904 116.242H216.41L217.765 86.5575L214.94 66.6691H198.488L194.523 128.333L198.686 145.76H247.845L248.044 134.181L246.904 116.242Z" fill="#040000"/>
<path d="M281.989 149.51L281.692 131.951H273.135L272.987 149.51H249.316L248.275 128.399L249.035 71.3109H257.278L257.327 62.9194H297.583L297.798 71.3109H306.057L307.957 128.515L305.363 149.51H281.989Z" fill="#040000"/>
<path d="M302.439 75.0605H294.18L293.965 66.6691H261.093V75.0605H252.834L252.14 128.35L252.983 145.777H269.369L269.534 128.35V128.201H285.475L285.772 145.777H302.158L304.306 128.35L302.439 75.0605ZM284.83 94.6352L284.93 101.061H269.369V94.6352H284.83Z" fill="#040000"/>
<path d="M311.69 149.51L311.31 140.656H303.15L301.514 94.4865L304.174 71.3109H311.013L312.136 62.9194H351.764L352.408 71.3109H360.651L361.708 83.9146L360.502 88.5067H362.105L365.491 128.763L358.983 149.51H311.69Z" fill="#040000"/>
<path d="M358.669 92.2564H355.662L357.925 83.6007L357.215 75.0605H348.956L348.312 66.6691H315.44L314.316 75.0605H307.544L305.297 94.6352L306.784 136.906H314.928L315.307 145.777H356.257L361.725 128.35L358.669 92.2564ZM329.695 111.17L330.141 119.099H326.441L325.136 94.6352H332.949L329.695 111.17Z" fill="#040000"/>
<path d="M357.826 149.51L352.573 86.2272L358.652 62.9194H414.138L416.203 78.1826L412.503 87.1522H417.409L419.573 102.994L415.261 112.492H420.861L423.091 128.994L412.751 149.51H357.826Z" fill="#040000"/>
<path d="M417.574 116.242H409.447L415.707 102.432L414.138 90.9019H406.92L412.354 77.687L410.851 66.6691H361.543L356.373 86.5575L361.262 145.76H410.438L419.226 128.333L417.574 116.242Z" fill="#040000"/>
<path d="M117.596 66.6691L125.756 86.5575L120.322 128.201L111.534 109.997L117.596 66.6691Z" stroke="black" stroke-width="0.412965" stroke-miterlimit="10"/>
<path d="M139.087 66.6691L146.058 86.5575L139.467 145.76L131.686 128.333L139.087 66.6691Z" stroke="black" stroke-width="0.412965" stroke-miterlimit="10"/>
<path d="M190.014 116.241L194.391 134.181L193.648 145.76L189.188 128.333L190.014 116.241Z" stroke="black" stroke-width="0.412965" stroke-miterlimit="10"/>
<path d="M302.423 75.0606L304.207 128.333L302.043 145.76L300.474 94.6352L302.423 75.0606Z" stroke="black" stroke-width="0.412965" stroke-miterlimit="10"/>
<path d="M417.574 116.241L419.226 128.333L410.438 145.76L408.984 134.181L417.574 116.241Z" stroke="black" stroke-width="0.412965" stroke-miterlimit="10"/>
<path fill-rule="evenodd" clip-rule="evenodd" d="M117.596 66.6691L111.534 109.997H102.977L101.639 119.083H93.0164L91.5628 128.333L91.5626 128.333L101.655 145.76H85.269L74.1685 128.333L74.1687 128.333L75.7545 119.083H67.1483L68.7671 109.997H60.2104L68.3046 66.6691H84.7406L77.3072 109.997H94.4205L101.177 66.6691H117.596ZM139.087 66.6691L131.686 128.333L131.686 128.333L139.466 145.76H123.063L114.292 128.333L114.292 128.333L122.651 66.6691H139.087ZM155.622 116.242L160.561 66.6691H144.142L137.022 128.333L137.022 128.333L144.505 145.76H193.648L189.188 128.333L189.188 128.333L190.014 116.242H155.622ZM214.94 66.6691L212.512 116.242H246.904L246.689 128.333L246.689 128.333L247.845 145.76H198.686L194.523 128.333L194.523 128.333L198.488 66.6691H214.94ZM302.406 75.0605H294.147L293.866 66.6691H260.994V75.0605H252.735L252.041 128.333H252.025L252.883 145.76H269.27L269.419 128.333H269.386V109.997H286.499L286.829 128.333L285.673 145.76H302.043L304.207 128.333H304.173L302.406 75.0605ZM285.871 75.0605L286.35 101.061H286.334H269.353V75.0605H285.871ZM348.295 66.6691L348.939 75.0606H357.215L357.926 83.5842H341.242L340.647 75.0606H324.079L326.425 119.083H343.686L342.448 101.061H333.957L333.412 92.2399H358.652L361.708 128.333L356.24 145.76H315.274L318.248 128.333L317.818 119.083H309.196L307.511 75.0606H315.803L315.423 66.6691H348.295ZM412.354 77.687L410.851 66.6691H361.543L367.044 128.333L361.262 145.76H410.438L419.226 128.333L417.574 116.242H383.182L381.729 102.432H415.708L414.138 90.9019H380.523L379.135 77.687H412.354ZM474.993 119.116H466.387L463.083 101.077H471.607L466.75 75.077H458.491L456.988 66.6856H415.906L424.558 128.34L415.476 145.76H431.846L441.92 128.366H441.956L439.098 110.014H447.655L449.141 119.116H457.764L459.41 128.333H459.333L448.249 145.76H464.619L476.704 128.366H476.727L476.722 128.34L476.727 128.333H476.721L474.993 119.116ZM437.694 101.077L433.614 75.0605H450.132L454.592 101.061L437.694 101.077Z" fill="url(#paint24_linear_17_14)"/>
<defs>
<linearGradient id="paint0_linear_17_14" x1="258.574" y1="4" x2="258.574" y2="78.5295" gradientUnits="userSpaceOnUse">
<stop stop-color="#FEB460"/>
<stop offset="0.71522" stop-color="#D06D0F"/>
<stop offset="0.724284" stop-color="#FF902D"/>
<stop offset="0.734859" stop-color="#4A2402"/>
<stop offset="1" stop-color="#623003"/>
</linearGradient>
<linearGradient id="paint1_linear_17_14" x1="258.574" y1="4" x2="258.574" y2="78.5295" gradientUnits="userSpaceOnUse">
<stop stop-color="#FEB460"/>
<stop offset="0.71522" stop-color="#D06D0F"/>
<stop offset="0.724284" stop-color="#FF902D"/>
<stop offset="0.734859" stop-color="#4A2402"/>
<stop offset="1" stop-color="#623003"/>
</linearGradient>
<linearGradient id="paint2_linear_17_14" x1="258.574" y1="4" x2="258.574" y2="78.5295" gradientUnits="userSpaceOnUse">
<stop stop-color="#FEB460"/>
<stop offset="0.71522" stop-color="#D06D0F"/>
<stop offset="0.724284" stop-color="#FF902D"/>
<stop offset="0.734859" stop-color="#4A2402"/>
<stop offset="1" stop-color="#623003"/>
</linearGradient>
<linearGradient id="paint3_linear_17_14" x1="258.574" y1="4" x2="258.574" y2="78.5295" gradientUnits="userSpaceOnUse">
<stop stop-color="#FEB460"/>
<stop offset="0.71522" stop-color="#D06D0F"/>
<stop offset="0.724284" stop-color="#FF902D"/>
<stop offset="0.734859" stop-color="#4A2402"/>
<stop offset="1" stop-color="#623003"/>
</linearGradient>
<linearGradient id="paint4_linear_17_14" x1="258.574" y1="4" x2="258.574" y2="78.5295" gradientUnits="userSpaceOnUse">
<stop stop-color="#FEB460"/>
<stop offset="0.71522" stop-color="#D06D0F"/>
<stop offset="0.724284" stop-color="#FF902D"/>
<stop offset="0.734859" stop-color="#4A2402"/>
<stop offset="1" stop-color="#623003"/>
</linearGradient>
<linearGradient id="paint5_linear_17_14" x1="258.574" y1="4" x2="258.574" y2="78.5295" gradientUnits="userSpaceOnUse">
<stop stop-color="#FEB460"/>
<stop offset="0.71522" stop-color="#D06D0F"/>
<stop offset="0.724284" stop-color="#FF902D"/>
<stop offset="0.734859" stop-color="#4A2402"/>
<stop offset="1" stop-color="#623003"/>
</linearGradient>
<linearGradient id="paint6_linear_17_14" x1="258.574" y1="4" x2="258.574" y2="78.5295" gradientUnits="userSpaceOnUse">
<stop stop-color="#FEB460"/>
<stop offset="0.71522" stop-color="#D06D0F"/>
<stop offset="0.724284" stop-color="#FF902D"/>
<stop offset="0.734859" stop-color="#4A2402"/>
<stop offset="1" stop-color="#623003"/>
</linearGradient>
<linearGradient id="paint7_linear_17_14" x1="258.574" y1="4" x2="258.574" y2="78.5295" gradientUnits="userSpaceOnUse">
<stop stop-color="#FEB460"/>
<stop offset="0.71522" stop-color="#D06D0F"/>
<stop offset="0.724284" stop-color="#FF902D"/>
<stop offset="0.734859" stop-color="#4A2402"/>
<stop offset="1" stop-color="#623003"/>
</linearGradient>
<linearGradient id="paint8_linear_17_14" x1="258.574" y1="4" x2="258.574" y2="78.5295" gradientUnits="userSpaceOnUse">
<stop stop-color="#FEB460"/>
<stop offset="0.71522" stop-color="#D06D0F"/>
<stop offset="0.724284" stop-color="#FF902D"/>
<stop offset="0.734859" stop-color="#4A2402"/>
<stop offset="1" stop-color="#623003"/>
</linearGradient>
<linearGradient id="paint9_linear_17_14" x1="258.574" y1="4" x2="258.574" y2="78.5295" gradientUnits="userSpaceOnUse">
<stop stop-color="#FEB460"/>
<stop offset="0.71522" stop-color="#D06D0F"/>
<stop offset="0.724284" stop-color="#FF902D"/>
<stop offset="0.734859" stop-color="#4A2402"/>
<stop offset="1" stop-color="#623003"/>
</linearGradient>
<linearGradient id="paint10_linear_17_14" x1="258.574" y1="4" x2="258.574" y2="78.5295" gradientUnits="userSpaceOnUse">
<stop stop-color="#FEB460"/>
<stop offset="0.71522" stop-color="#D06D0F"/>
<stop offset="0.724284" stop-color="#FF902D"/>
<stop offset="0.734859" stop-color="#4A2402"/>
<stop offset="1" stop-color="#623003"/>
</linearGradient>
<linearGradient id="paint11_linear_17_14" x1="258.574" y1="4" x2="258.574" y2="78.5295" gradientUnits="userSpaceOnUse">
<stop stop-color="#FEB460"/>
<stop offset="0.71522" stop-color="#D06D0F"/>
<stop offset="0.724284" stop-color="#FF902D"/>
<stop offset="0.734859" stop-color="#4A2402"/>
<stop offset="1" stop-color="#623003"/>
</linearGradient>
<linearGradient id="paint12_linear_17_14" x1="258.574" y1="4" x2="258.574" y2="78.5295" gradientUnits="userSpaceOnUse">
<stop stop-color="#FEB460"/>
<stop offset="0.71522" stop-color="#D06D0F"/>
<stop offset="0.724284" stop-color="#FF902D"/>
<stop offset="0.734859" stop-color="#4A2402"/>
<stop offset="1" stop-color="#623003"/>
</linearGradient>
<linearGradient id="paint13_linear_17_14" x1="258.574" y1="4" x2="258.574" y2="78.5295" gradientUnits="userSpaceOnUse">
<stop stop-color="#FEB460"/>
<stop offset="0.71522" stop-color="#D06D0F"/>
<stop offset="0.724284" stop-color="#FF902D"/>
<stop offset="0.734859" stop-color="#4A2402"/>
<stop offset="1" stop-color="#623003"/>
</linearGradient>
<linearGradient id="paint14_linear_17_14" x1="258.574" y1="4" x2="258.574" y2="78.5295" gradientUnits="userSpaceOnUse">
<stop stop-color="#FEB460"/>
<stop offset="0.71522" stop-color="#D06D0F"/>
<stop offset="0.724284" stop-color="#FF902D"/>
<stop offset="0.734859" stop-color="#4A2402"/>
<stop offset="1" stop-color="#623003"/>
</linearGradient>
<linearGradient id="paint15_linear_17_14" x1="258.574" y1="4" x2="258.574" y2="78.5295" gradientUnits="userSpaceOnUse">
<stop stop-color="#FEB460"/>
<stop offset="0.71522" stop-color="#D06D0F"/>
<stop offset="0.724284" stop-color="#FF902D"/>
<stop offset="0.734859" stop-color="#4A2402"/>
<stop offset="1" stop-color="#623003"/>
</linearGradient>
<linearGradient id="paint16_linear_17_14" x1="258.574" y1="4" x2="258.574" y2="78.5295" gradientUnits="userSpaceOnUse">
<stop stop-color="#FEB460"/>
<stop offset="0.71522" stop-color="#D06D0F"/>
<stop offset="0.724284" stop-color="#FF902D"/>
<stop offset="0.734859" stop-color="#4A2402"/>
<stop offset="1" stop-color="#623003"/>
</linearGradient>
<linearGradient id="paint17_linear_17_14" x1="258.574" y1="4" x2="258.574" y2="78.5295" gradientUnits="userSpaceOnUse">
<stop stop-color="#FEB460"/>
<stop offset="0.71522" stop-color="#D06D0F"/>
<stop offset="0.724284" stop-color="#FF902D"/>
<stop offset="0.734859" stop-color="#4A2402"/>
<stop offset="1" stop-color="#623003"/>
</linearGradient>
<linearGradient id="paint18_linear_17_14" x1="258.574" y1="4" x2="258.574" y2="78.5295" gradientUnits="userSpaceOnUse">
<stop stop-color="#FEB460"/>
<stop offset="0.71522" stop-color="#D06D0F"/>
<stop offset="0.724284" stop-color="#FF902D"/>
<stop offset="0.734859" stop-color="#4A2402"/>
<stop offset="1" stop-color="#623003"/>
</linearGradient>
<linearGradient id="paint19_linear_17_14" x1="258.574" y1="4" x2="258.574" y2="78.5295" gradientUnits="userSpaceOnUse">
<stop stop-color="#FEB460"/>
<stop offset="0.71522" stop-color="#D06D0F"/>
<stop offset="0.724284" stop-color="#FF902D"/>
<stop offset="0.734859" stop-color="#4A2402"/>
<stop offset="1" stop-color="#623003"/>
</linearGradient>
<linearGradient id="paint20_linear_17_14" x1="258.574" y1="4" x2="258.574" y2="78.5295" gradientUnits="userSpaceOnUse">
<stop stop-color="#FEB460"/>
<stop offset="0.71522" stop-color="#D06D0F"/>
<stop offset="0.724284" stop-color="#FF902D"/>
<stop offset="0.734859" stop-color="#4A2402"/>
<stop offset="1" stop-color="#623003"/>
</linearGradient>
<linearGradient id="paint21_linear_17_14" x1="258.574" y1="4" x2="258.574" y2="78.5295" gradientUnits="userSpaceOnUse">
<stop stop-color="#FEB460"/>
<stop offset="0.71522" stop-color="#D06D0F"/>
<stop offset="0.724284" stop-color="#FF902D"/>
<stop offset="0.734859" stop-color="#4A2402"/>
<stop offset="1" stop-color="#623003"/>
</linearGradient>
<linearGradient id="paint22_linear_17_14" x1="258.574" y1="4" x2="258.574" y2="78.5295" gradientUnits="userSpaceOnUse">
<stop stop-color="#FEB460"/>
<stop offset="0.71522" stop-color="#D06D0F"/>
<stop offset="0.724284" stop-color="#FF902D"/>
<stop offset="0.734859" stop-color="#4A2402"/>
<stop offset="1" stop-color="#623003"/>
</linearGradient>
<linearGradient id="paint23_linear_17_14" x1="258.574" y1="4" x2="258.574" y2="78.5295" gradientUnits="userSpaceOnUse">
<stop stop-color="#FEB460"/>
<stop offset="0.71522" stop-color="#D06D0F"/>
<stop offset="0.724284" stop-color="#FF902D"/>
<stop offset="0.734859" stop-color="#4A2402"/>
<stop offset="1" stop-color="#623003"/>
</linearGradient>
<linearGradient id="paint24_linear_17_14" x1="266.362" y1="66.9339" x2="266.362" y2="145.76" gradientUnits="userSpaceOnUse">
<stop stop-color="#E2DBD8"/>
<stop offset="0.762556" stop-color="#B3A6A1"/>
<stop offset="0.777983" stop-color="#C8C3BF"/>
<stop offset="0.789553" stop-color="#33302F"/>
<stop offset="1" stop-color="#413E3D"/>
</linearGradient>
</defs>
</svg>
